<mxfile host="Electron" modified="2024-07-05T09:23:44.599Z" agent="Mozilla/5.0 (Windows NT 10.0; Win64; x64) AppleWebKit/537.36 (KHTML, like Gecko) draw.io/24.6.4 Chrome/124.0.6367.207 Electron/30.0.6 Safari/537.36" etag="NdhC0Uib0mYq6-bhc3Mt" version="24.6.4" type="device">
  <diagram name="Страница — 1" id="my6lkDmq5yNpNsRQytHS">
    <mxGraphModel dx="1008" dy="698" grid="1" gridSize="10" guides="1" tooltips="1" connect="1" arrows="1" fold="1" page="1" pageScale="1" pageWidth="827" pageHeight="1169" math="0" shadow="0">
      <root>
        <mxCell id="0" />
        <mxCell id="1" parent="0" />
        <mxCell id="m-Ipganus_esZseDs1Uh-2" value="" style="endArrow=none;dashed=1;html=1;rounded=0;" edge="1" parent="1">
          <mxGeometry width="50" height="50" relative="1" as="geometry">
            <mxPoint x="200" y="219" as="sourcePoint" />
            <mxPoint x="650" y="219" as="targetPoint" />
          </mxGeometry>
        </mxCell>
        <mxCell id="m-Ipganus_esZseDs1Uh-5" value="" style="endArrow=none;dashed=1;html=1;rounded=0;" edge="1" parent="1">
          <mxGeometry width="50" height="50" relative="1" as="geometry">
            <mxPoint x="200" y="360" as="sourcePoint" />
            <mxPoint x="650" y="360" as="targetPoint" />
          </mxGeometry>
        </mxCell>
        <mxCell id="m-Ipganus_esZseDs1Uh-7" value="Controller (API)" style="text;html=1;align=center;verticalAlign=middle;whiteSpace=wrap;rounded=0;" vertex="1" parent="1">
          <mxGeometry x="160" y="145" width="60" height="30" as="geometry" />
        </mxCell>
        <mxCell id="m-Ipganus_esZseDs1Uh-8" value="Service (Business logic)" style="text;html=1;align=center;verticalAlign=middle;whiteSpace=wrap;rounded=0;" vertex="1" parent="1">
          <mxGeometry x="160" y="275" width="60" height="30" as="geometry" />
        </mxCell>
        <mxCell id="m-Ipganus_esZseDs1Uh-9" value="Repository (Database connectivity)" style="text;html=1;align=center;verticalAlign=middle;whiteSpace=wrap;rounded=0;" vertex="1" parent="1">
          <mxGeometry x="160" y="410" width="60" height="30" as="geometry" />
        </mxCell>
        <mxCell id="m-Ipganus_esZseDs1Uh-13" style="edgeStyle=orthogonalEdgeStyle;rounded=0;orthogonalLoop=1;jettySize=auto;html=1;entryX=0.5;entryY=0;entryDx=0;entryDy=0;exitX=0.25;exitY=1;exitDx=0;exitDy=0;" edge="1" parent="1" source="m-Ipganus_esZseDs1Uh-10" target="m-Ipganus_esZseDs1Uh-11">
          <mxGeometry relative="1" as="geometry" />
        </mxCell>
        <mxCell id="m-Ipganus_esZseDs1Uh-14" style="edgeStyle=orthogonalEdgeStyle;rounded=0;orthogonalLoop=1;jettySize=auto;html=1;exitX=0.75;exitY=1;exitDx=0;exitDy=0;" edge="1" parent="1" source="m-Ipganus_esZseDs1Uh-10" target="m-Ipganus_esZseDs1Uh-12">
          <mxGeometry relative="1" as="geometry" />
        </mxCell>
        <mxCell id="m-Ipganus_esZseDs1Uh-10" value="Controller" style="rounded=1;whiteSpace=wrap;html=1;" vertex="1" parent="1">
          <mxGeometry x="320" y="130" width="120" height="60" as="geometry" />
        </mxCell>
        <mxCell id="m-Ipganus_esZseDs1Uh-20" style="edgeStyle=orthogonalEdgeStyle;rounded=0;orthogonalLoop=1;jettySize=auto;html=1;exitX=0.75;exitY=1;exitDx=0;exitDy=0;entryX=0.25;entryY=0;entryDx=0;entryDy=0;" edge="1" parent="1" source="m-Ipganus_esZseDs1Uh-11" target="m-Ipganus_esZseDs1Uh-16">
          <mxGeometry relative="1" as="geometry">
            <Array as="points">
              <mxPoint x="330" y="378" />
              <mxPoint x="430" y="378" />
            </Array>
          </mxGeometry>
        </mxCell>
        <mxCell id="m-Ipganus_esZseDs1Uh-22" style="edgeStyle=orthogonalEdgeStyle;rounded=0;orthogonalLoop=1;jettySize=auto;html=1;entryX=0.25;entryY=0;entryDx=0;entryDy=0;exitX=0.25;exitY=1;exitDx=0;exitDy=0;" edge="1" parent="1" source="m-Ipganus_esZseDs1Uh-11" target="m-Ipganus_esZseDs1Uh-15">
          <mxGeometry relative="1" as="geometry" />
        </mxCell>
        <mxCell id="m-Ipganus_esZseDs1Uh-11" value="Service 1" style="rounded=1;whiteSpace=wrap;html=1;" vertex="1" parent="1">
          <mxGeometry x="240" y="260" width="120" height="60" as="geometry" />
        </mxCell>
        <mxCell id="m-Ipganus_esZseDs1Uh-23" style="edgeStyle=orthogonalEdgeStyle;rounded=0;orthogonalLoop=1;jettySize=auto;html=1;entryX=0.75;entryY=0;entryDx=0;entryDy=0;exitX=0.25;exitY=1;exitDx=0;exitDy=0;" edge="1" parent="1" source="m-Ipganus_esZseDs1Uh-12" target="m-Ipganus_esZseDs1Uh-15">
          <mxGeometry relative="1" as="geometry">
            <Array as="points">
              <mxPoint x="430" y="350" />
              <mxPoint x="380" y="350" />
              <mxPoint x="380" y="400" />
              <mxPoint x="330" y="400" />
            </Array>
          </mxGeometry>
        </mxCell>
        <mxCell id="m-Ipganus_esZseDs1Uh-24" style="edgeStyle=orthogonalEdgeStyle;rounded=0;orthogonalLoop=1;jettySize=auto;html=1;entryX=0.75;entryY=0;entryDx=0;entryDy=0;exitX=0.75;exitY=1;exitDx=0;exitDy=0;" edge="1" parent="1" source="m-Ipganus_esZseDs1Uh-12" target="m-Ipganus_esZseDs1Uh-16">
          <mxGeometry relative="1" as="geometry" />
        </mxCell>
        <mxCell id="m-Ipganus_esZseDs1Uh-12" value="Service 2" style="rounded=1;whiteSpace=wrap;html=1;" vertex="1" parent="1">
          <mxGeometry x="400" y="260" width="120" height="60" as="geometry" />
        </mxCell>
        <mxCell id="m-Ipganus_esZseDs1Uh-32" style="edgeStyle=orthogonalEdgeStyle;rounded=0;orthogonalLoop=1;jettySize=auto;html=1;entryX=0.145;entryY=0;entryDx=0;entryDy=4.35;entryPerimeter=0;" edge="1" parent="1" source="m-Ipganus_esZseDs1Uh-15" target="m-Ipganus_esZseDs1Uh-31">
          <mxGeometry relative="1" as="geometry" />
        </mxCell>
        <mxCell id="m-Ipganus_esZseDs1Uh-15" value="Repository 1" style="rounded=1;whiteSpace=wrap;html=1;" vertex="1" parent="1">
          <mxGeometry x="240" y="420" width="120" height="60" as="geometry" />
        </mxCell>
        <mxCell id="m-Ipganus_esZseDs1Uh-16" value="Repository 2" style="rounded=1;whiteSpace=wrap;html=1;" vertex="1" parent="1">
          <mxGeometry x="400" y="420" width="120" height="60" as="geometry" />
        </mxCell>
        <mxCell id="m-Ipganus_esZseDs1Uh-17" value="&lt;h1 style=&quot;margin-top: 0px;&quot;&gt;Repository&lt;/h1&gt;&lt;p&gt;Обычно один репозиторий отвечает за операции с одной таблицей базы данных&lt;/p&gt;" style="text;html=1;whiteSpace=wrap;overflow=hidden;rounded=0;" vertex="1" parent="1">
          <mxGeometry x="540" y="370" width="180" height="120" as="geometry" />
        </mxCell>
        <mxCell id="m-Ipganus_esZseDs1Uh-18" value="&lt;h1 style=&quot;margin-top: 0px;&quot;&gt;Service&lt;/h1&gt;&lt;p&gt;Один сервис обрабатывает одну логическую группу операций&lt;/p&gt;" style="text;html=1;whiteSpace=wrap;overflow=hidden;rounded=0;" vertex="1" parent="1">
          <mxGeometry x="540" y="230" width="180" height="120" as="geometry" />
        </mxCell>
        <mxCell id="m-Ipganus_esZseDs1Uh-27" value="&lt;h1 style=&quot;margin-top: 0px;&quot;&gt;Controller&lt;/h1&gt;&lt;div&gt;Контроллер обрабатывает запросы пользователя, направляя их в соответсвующий сервис&lt;/div&gt;" style="text;html=1;whiteSpace=wrap;overflow=hidden;rounded=0;" vertex="1" parent="1">
          <mxGeometry x="540" y="90" width="180" height="120" as="geometry" />
        </mxCell>
        <mxCell id="m-Ipganus_esZseDs1Uh-29" style="edgeStyle=orthogonalEdgeStyle;rounded=0;orthogonalLoop=1;jettySize=auto;html=1;entryX=0.5;entryY=0;entryDx=0;entryDy=0;" edge="1" parent="1" source="m-Ipganus_esZseDs1Uh-28" target="m-Ipganus_esZseDs1Uh-10">
          <mxGeometry relative="1" as="geometry" />
        </mxCell>
        <mxCell id="m-Ipganus_esZseDs1Uh-28" value="User" style="shape=umlActor;verticalLabelPosition=bottom;verticalAlign=top;html=1;outlineConnect=0;" vertex="1" parent="1">
          <mxGeometry x="365" y="20" width="30" height="60" as="geometry" />
        </mxCell>
        <mxCell id="m-Ipganus_esZseDs1Uh-31" value="Database" style="shape=cylinder3;whiteSpace=wrap;html=1;boundedLbl=1;backgroundOutline=1;size=15;" vertex="1" parent="1">
          <mxGeometry x="350" y="530" width="60" height="80" as="geometry" />
        </mxCell>
        <mxCell id="m-Ipganus_esZseDs1Uh-33" style="edgeStyle=orthogonalEdgeStyle;rounded=0;orthogonalLoop=1;jettySize=auto;html=1;entryX=0.855;entryY=0;entryDx=0;entryDy=4.35;entryPerimeter=0;" edge="1" parent="1" source="m-Ipganus_esZseDs1Uh-16" target="m-Ipganus_esZseDs1Uh-31">
          <mxGeometry relative="1" as="geometry" />
        </mxCell>
      </root>
    </mxGraphModel>
  </diagram>
</mxfile>
